<?xml version="1.0" encoding="iso-8859-1"?>
<!-- Generator: Adobe Illustrator 16.0.0, SVG Export Plug-In . SVG Version: 6.00 Build 0)  -->
<!DOCTYPE svg PUBLIC "-//W3C//DTD SVG 1.1//EN" "http://www.w3.org/Graphics/SVG/1.1/DTD/svg11.dtd">
<svg xmlns="http://www.w3.org/2000/svg" xmlns:xlink="http://www.w3.org/1999/xlink" version="1.1" id="Capa_1" x="0px" y="0px" width="512px" height="512px" viewBox="0 0 588.596 588.595" style="enable-background:new 0 0 588.596 588.595;" xml:space="preserve">
<g>
	<path d="M359.023,537.786c0.791,0.053,1.551,0.115,2.353,0.115h178.2c20.835,0,37.8-16.97,37.8-37.8v-413.1   c0-20.841-16.965-37.8-37.8-37.8h-178.2c-0.791,0-1.562,0.074-2.353,0.114V0L11.22,46.419v494.562l347.804,47.614V537.786z    M361.376,70.806h178.2c8.922,0,16.199,7.267,16.199,16.2v413.101c0,8.928-7.277,16.199-16.199,16.199h-178.2   c-0.802,0-1.571-0.126-2.353-0.237V363.013c1.762,1.439,4.04,2.024,6.281,1.508l58.382-13.468c1.351-0.312,2.584-0.992,3.56-1.962   c0.059-0.063,0.111-0.127,0.158-0.19l0.032,0.043l102.468-102.471l-6.739-6.729l-95.729,95.721l-41.93-41.935l95.729-95.729   l-6.739-6.721L372.044,293.53l0.063,0.074c-1.061,1.002-1.856,2.294-2.178,3.702l-10.906,47.25V71.043   C359.805,70.93,360.563,70.806,361.376,70.806z M368.458,335.75l8.495-36.819c0,0,0.021-0.063,0.048-0.095l0.074-0.042   c0.058-0.011,0.11,0.005,0.158,0.042l44.903,44.908c0.042,0.042,0.068,0.116,0.042,0.147l0.332,0.105l0.132,0.138l-0.585-0.116   l-36.814,8.501L368.458,335.75z M78.92,308.686c7.151,0.127,15.114-1.387,19.828-3.301l3.642,19.986   c-4.406,2.225-14.289,4.45-27.011,4.103c-35.366-1.002-53.138-24.891-53.138-55.888c0-37.115,24.355-58.379,55.447-59.158   c12.285-0.3,21.698,2.139,25.969,4.391l-4.904,20.337c-4.87-2.102-11.588-3.997-19.984-3.871C60.205,235.57,46,247.699,46,272.183   C45.99,294.206,58.071,308.306,78.92,308.686z M198.817,317.213c-12.171,10.004-30.441,14.364-52.376,13.748   c-12.922-0.359-21.998-1.467-28.107-2.474V216.799c9.02-1.732,20.894-2.872,33.552-3.18c21.355-0.525,35.445,3.132,46.575,11.454   c12.126,8.899,19.817,23.425,19.817,44.416C218.278,292.238,210.07,307.779,198.817,317.213z M300.51,333.988   c-2.067-3.522-5.07-13.626-8.796-28.804c-3.354-15.316-8.744-19.54-20.166-19.804l-8.416-0.061v47.635l-27.18-0.749V214.051   c8.765-1.632,21.919-3.019,36.682-3.385c18.512-0.454,31.641,1.969,40.732,8.735c7.626,5.743,11.812,14.338,11.812,25.771   c0,15.863-11.633,26.739-22.602,30.562v0.546c8.88,3.515,13.816,11.815,17.054,23.261c4.019,14.06,8.048,30.396,10.558,35.259   L300.51,333.988z" fill="#FFFFFF"/>
	<path d="M154.541,233.616c-5.622,0.087-9.25,0.654-11.377,1.205v75.23c2.133,0.564,5.58,0.623,8.722,0.681   c23.058,0.606,38.351-12.34,38.351-40.387C190.397,245.953,176.455,233.276,154.541,233.616z" fill="#FFFFFF"/>
	<path d="M275.767,231.013c-6.795,0.114-10.623,0.712-12.635,1.103v33.437l10.977-0.019c14.062-0.016,22.465-6.953,22.465-17.711   C296.578,236.516,288.727,230.993,275.767,231.013z" fill="#FFFFFF"/>
	<path d="M502.208,218.777l-85.946,85.954l-13.838-13.838l85.947-85.946L502.208,218.777z" fill="#FFFFFF"/>
</g>
<g>
</g>
<g>
</g>
<g>
</g>
<g>
</g>
<g>
</g>
<g>
</g>
<g>
</g>
<g>
</g>
<g>
</g>
<g>
</g>
<g>
</g>
<g>
</g>
<g>
</g>
<g>
</g>
<g>
</g>
</svg>
